<?xml version="1.0" encoding="UTF-8"?>
<svg width="38px" height="34px" viewBox="0 0 38 34" version="1.1" xmlns="http://www.w3.org/2000/svg" xmlns:xlink="http://www.w3.org/1999/xlink">
    <!-- Generator: Sketch 55.2 (78181) - https://sketchapp.com -->
    <title>Group</title>
    <desc>Created with Sketch.</desc>
    <g id="Atom" stroke="none" stroke-width="1" fill="none" fill-rule="evenodd">
        <g id="Atom/Logo/Horizontal-White-LowFi">
            <g id="Group">
                <polygon id="Fill-8" fill="#FFB600" points="0 33.9806485 38 33.9806485 38 0 0 0"></polygon>
                <polygon id="Fill-9" fill="#000000" points="27.3751333 12.880773 34.8008 4.59982234 34.8144667 4.61219195 34.8144667 3.37188808 31.2544667 3.37188808 27.3751333 7.819932 23.6634667 3.37188808 19.9358 3.37188808 19.9358 4.59982234 19.9358 4.59982234"></polygon>
                <polygon id="Fill-10" fill="#000000" points="23.6497667 16.0291723 23.6497667 9.63709418 23.6237667 9.66083045 19.9357667 5.61229142 19.9357667 16.0291723"></polygon>
                <polygon id="Fill-11" fill="#000000" points="31.1005667 9.64939692 31.1005667 16.0291055 34.8142333 16.0291055 34.8142333 5.53366083 31.1132333 9.59690967"></polygon>
                <polygon id="Fill-12" fill="#000000" points="34.8246 17.9588645 34.6246 17.9588645 34.6186 17.9588645 30.7892667 17.9588645 30.6762667 17.9588645 30.5832667 17.9588645 30.4706 17.9588645 27.8489333 21.0813545 29.9696 23.748175 34.8302667 17.9588645"></polygon>
                <polygon id="Fill-13" fill="#000000" points="24.4144667 17.9588645 20.2661333 17.9588645 20.2604667 17.9588645 20.0611333 17.9588645 20.0554667 17.9588645 25.3658 24.2837456 20.0554667 30.6086267 20.0611333 30.6086267 20.2604667 30.6086267 20.2661333 30.6086267 24.0964667 30.6086267 24.2091333 30.6086267 24.3014667 30.6086267 24.4144667 30.6086267 27.4424667 27.0023847 30.4704667 30.6086267 30.5834667 30.6086267 30.6764667 30.6086267 30.7894667 30.6086267 34.6188 30.6086267 34.6244667 30.6086267 34.8244667 30.6086267 34.8304667 30.6086267"></polygon>
                <g id="Group-18" transform="translate(3.333333, 3.223787)" fill="#000000">
                    <path d="M11.2238333,18.6516962 C11.2238333,19.2892325 11.0685,19.7900344 10.1815,19.7900344 L3.9865,19.7900344 L3.9865,17.128563 L10.8125,17.128563 C11.0861667,17.128563 11.2238333,17.2973914 11.2238333,17.633711 L11.2238333,18.6516962 Z M13.2875,14.6075033 L12.7631667,14.6075033 C12.7128333,14.6034915 12.6621667,14.600817 12.6105,14.600817 L0.277166667,14.600817 L0.277166667,27.2385439 L3.9735,27.2385439 L3.9735,22.9954343 L3.9865,22.9954343 L3.9865,22.0489922 L10.1815,22.0489922 C10.7658333,22.0489922 11.2238333,22.4123912 11.2238333,23.1876646 L11.2238333,24.2053156 C11.2238333,24.5426381 11.0861667,24.7107979 10.8125,24.7107979 L4.65483333,24.7107979 L4.65483333,27.2385439 L12.6105,27.2385439 C12.6471667,27.2385439 12.6835,27.2375409 12.7195,27.2355351 L13.7915,27.2355351 C14.2781667,27.2355351 14.6728333,26.8397076 14.6728333,26.3516096 L14.6728333,24.5045264 C14.6728333,24.4680862 14.6698333,24.4326489 14.6658333,24.3978803 L14.6658333,23.0696519 C14.6658333,21.7196931 13.0175,20.9196804 13.0175,20.9196804 C13.0175,20.9196804 14.6658333,20.274455 14.6658333,18.769709 L14.6658333,17.128563 C14.6658333,17.0861051 14.6625,17.0453188 14.6611667,17.0038639 C14.6681667,16.9476992 14.6728333,16.8912002 14.6728333,16.8330296 L14.6728333,15.996911 C14.6728333,15.2296611 14.0525,14.6075033 13.2875,14.6075033 L13.2875,14.6075033 Z" id="Fill-14"></path>
                    <path d="M11.7525667,8.63124452 C11.7989,8.63759648 11.8489,8.64127393 11.9049,8.64127393 L13.2742333,8.64127393 C14.0392333,8.64127393 14.6592333,8.01945043 14.6592333,7.25220046 L14.6592333,6.41574756 C14.6592333,6.36259168 14.6559,6.31043874 14.6499,6.25895443 C14.6522333,6.20813874 14.6555667,6.15765737 14.6555667,6.10583875 L14.6555667,0.148034111 L12.6002333,0.148034111 L0.2699,0.148034111 L0.2699,3.11506829 L3.97856667,3.11506829 L3.97856667,3.11373104 L10.9292333,3.11373104 C11.2025667,3.11373104 11.3402333,3.28255946 11.3402333,3.61887905 L11.3402333,4.98154174 C11.3402333,5.31852996 11.1242333,5.94837699 9.83556667,5.94837699 L3.97856667,5.94837699 L3.97856667,3.79840552 L0.2699,3.79840552 L0.2699,12.8044826 L3.97856667,12.8044826 L3.97856667,8.63124452 L7.7319,8.63124452 L10.6969,12.8044826 L14.6729,12.8044826 L11.6902333,8.63124452 L11.7525667,8.63124452 Z" id="Fill-16"></path>
                </g>
            </g>
        </g>
    </g>
</svg>